<svg width="25" height="25" viewBox="0 0 25 25" fill="none" xmlns="http://www.w3.org/2000/svg">
<g id="calendar 1">
<g id="Group">
<path id="Vector" d="M21.7648 1.47058H19.5589V3.67646C19.5589 4.11764 19.1912 4.41176 18.8236 4.41176C18.4559 4.41176 18.0883 4.11764 18.0883 3.67646V1.47058H6.32359V3.67646C6.32359 4.11764 5.95594 4.41176 5.58829 4.41176C5.22065 4.41176 4.853 4.11764 4.853 3.67646V1.47058H2.64712C1.54418 1.47058 0.735352 2.42646 0.735352 3.67646V6.32352H24.2648V3.67646C24.2648 2.42646 22.9412 1.47058 21.7648 1.47058ZM0.735352 7.86764V21.3235C0.735352 22.6471 1.54418 23.5294 2.72065 23.5294H21.8383C23.0148 23.5294 24.3383 22.5735 24.3383 21.3235V7.86764H0.735352ZM7.27947 20.2206H5.51476C5.22065 20.2206 4.92653 20 4.92653 19.6323V17.7941C4.92653 17.5 5.14712 17.2059 5.51476 17.2059H7.353C7.64712 17.2059 7.94123 17.4265 7.94123 17.7941V19.6323C7.8677 20 7.64712 20.2206 7.27947 20.2206ZM7.27947 13.6029H5.51476C5.22065 13.6029 4.92653 13.3823 4.92653 13.0147V11.1765C4.92653 10.8823 5.14712 10.5882 5.51476 10.5882H7.353C7.64712 10.5882 7.94123 10.8088 7.94123 11.1765V13.0147C7.8677 13.3823 7.64712 13.6029 7.27947 13.6029ZM13.1618 20.2206H11.3236C11.0295 20.2206 10.7354 20 10.7354 19.6323V17.7941C10.7354 17.5 10.9559 17.2059 11.3236 17.2059H13.1618C13.4559 17.2059 13.7501 17.4265 13.7501 17.7941V19.6323C13.7501 20 13.5295 20.2206 13.1618 20.2206ZM13.1618 13.6029H11.3236C11.0295 13.6029 10.7354 13.3823 10.7354 13.0147V11.1765C10.7354 10.8823 10.9559 10.5882 11.3236 10.5882H13.1618C13.4559 10.5882 13.7501 10.8088 13.7501 11.1765V13.0147C13.7501 13.3823 13.5295 13.6029 13.1618 13.6029ZM19.0442 20.2206H17.2059C16.9118 20.2206 16.6177 20 16.6177 19.6323V17.7941C16.6177 17.5 16.8383 17.2059 17.2059 17.2059H19.0442C19.3383 17.2059 19.6324 17.4265 19.6324 17.7941V19.6323C19.6324 20 19.4118 20.2206 19.0442 20.2206ZM19.0442 13.6029H17.2059C16.9118 13.6029 16.6177 13.3823 16.6177 13.0147V11.1765C16.6177 10.8823 16.8383 10.5882 17.2059 10.5882H19.0442C19.3383 10.5882 19.6324 10.8088 19.6324 11.1765V13.0147C19.6324 13.3823 19.4118 13.6029 19.0442 13.6029Z" fill="white"/>
</g>
</g>
</svg>
