<svg width="25" height="25" viewBox="0 0 25 25" fill="none" xmlns="http://www.w3.org/2000/svg">
<g id="clock 1">
<path id="Vector" d="M12.5 1.04167C10.2337 1.04167 8.01837 1.71369 6.13406 2.97275C4.24974 4.23181 2.7811 6.02135 1.91384 8.11509C1.04659 10.2088 0.819677 12.5127 1.2618 14.7354C1.70392 16.9581 2.79522 18.9998 4.3977 20.6023C6.00018 22.2048 8.04186 23.296 10.2646 23.7382C12.4873 24.1803 14.7911 23.9534 16.8849 23.0861C18.9786 22.2189 20.7682 20.7502 22.0272 18.8659C23.2863 16.9816 23.9583 14.7663 23.9583 12.5C23.9547 9.46217 22.7463 6.54978 20.5983 4.4017C18.4502 2.25362 15.5378 1.04526 12.5 1.04167ZM12.5 21.875C10.6458 21.875 8.8332 21.3252 7.29149 20.295C5.74978 19.2649 4.54817 17.8007 3.83859 16.0877C3.12902 14.3746 2.94337 12.4896 3.3051 10.671C3.66684 8.85246 4.55972 7.182 5.87084 5.87088C7.18195 4.55976 8.85242 3.66688 10.671 3.30514C12.4896 2.94341 14.3746 3.12906 16.0876 3.83863C17.8007 4.54821 19.2649 5.74982 20.295 7.29153C21.3251 8.83325 21.875 10.6458 21.875 12.5C21.8719 14.9855 20.8832 17.3683 19.1257 19.1258C17.3682 20.8833 14.9854 21.872 12.5 21.875Z" fill="white"/>
<path id="Vector_2" d="M13.5417 12.0687V6.24999C13.5417 5.97373 13.432 5.70878 13.2366 5.51343C13.0413 5.31808 12.7763 5.20833 12.5 5.20833C12.2238 5.20833 11.9588 5.31808 11.7635 5.51343C11.5681 5.70878 11.4584 5.97373 11.4584 6.24999V12.5C11.4584 12.7762 11.5682 13.0411 11.7636 13.2365L14.8886 16.3615C15.085 16.5512 15.3482 16.6562 15.6213 16.6538C15.8944 16.6514 16.1557 16.5419 16.3488 16.3488C16.5419 16.1556 16.6515 15.8944 16.6539 15.6212C16.6562 15.3481 16.5512 15.085 16.3615 14.8885L13.5417 12.0687Z" fill="white"/>
</g>
</svg>
