<svg width="335" height="400" viewBox="0 0 335 400" fill="none" xmlns="http://www.w3.org/2000/svg">
<path d="M320.339 265.47C348.43 316.01 332.208 349.53 302.919 364.201C273.634 378.881 246.355 377.122 226.241 388.735L225.682 389.671C205.569 401.283 193.719 426.247 166.364 444.27C139.007 462.292 102.396 460.493 72.6732 410.896C47.7752 363.98 80.8439 340.381 79.3212 268.857C77.9786 205.875 111.406 191.735 111.406 191.735L112.229 191.26C112.229 191.26 141.577 169.433 195.062 202.034C256.142 239.272 292.157 220.448 320.339 265.47ZM48.9205 200.306C72.907 183.922 73.7281 143.372 50.7521 109.736C27.7766 76.1011 -10.2951 62.1164 -34.2817 78.5013C-58.2682 94.8861 -59.0888 135.436 -36.1133 169.071C-13.1378 202.707 24.9331 216.692 48.9205 200.306ZM144.349 146.025C172.721 138.554 187.23 100.248 176.754 60.4661C166.278 20.6846 134.786 -5.50909 106.415 1.96126C78.0431 9.43207 63.5337 47.7385 74.0102 87.52C84.4854 127.301 115.977 153.496 144.349 146.025ZM242.03 52.9341C217.324 59.4388 204.688 92.7965 213.811 127.44C222.934 162.083 250.357 184.892 275.063 178.386C299.77 171.88 312.406 138.523 303.284 103.88C294.162 69.2375 266.738 46.4276 242.03 52.9341ZM15.3122 242.04C-10.1281 216.819 -45.3335 211.082 -63.3215 229.226C-81.3094 247.37 -75.2682 282.525 -49.8275 307.746C-24.3872 332.966 10.8191 338.703 28.807 320.559C46.7946 302.417 40.7526 267.262 15.3122 242.04Z" fill="#83CCC3" fill-opacity="0.35"/>
</svg>
