<svg width="240" height="75" viewBox="0 0 240 75" fill="none" xmlns="http://www.w3.org/2000/svg">
<g id="DDR Logo">
<g id="Group">
<g id="Group_2">
<path id="Vector" d="M90.5961 42.8831V14.4241H103.524C106.615 14.4241 109.339 15.0149 111.698 16.1919C114.056 17.3689 115.899 19.0148 117.226 21.1297C118.553 23.2445 119.219 25.7533 119.219 28.6512C119.219 31.5257 118.553 34.0251 117.226 36.154C115.899 38.2829 114.056 39.9335 111.698 41.1152C109.339 42.2922 106.615 42.8831 103.524 42.8831H90.5961ZM97.1845 37.4764H103.201C105.1 37.4764 106.746 37.1153 108.139 36.3979C109.536 35.6804 110.619 34.6581 111.393 33.3264C112.167 31.9993 112.551 30.4378 112.551 28.6512C112.551 26.8365 112.167 25.2703 111.393 23.9573C110.619 22.6443 109.536 21.6267 108.139 20.9093C106.741 20.1918 105.095 19.8308 103.201 19.8308H97.1845V37.4764Z" fill="white"/>
<path id="Vector_2" d="M134.586 43.2065C132.091 43.2065 129.901 42.7188 128.021 41.7435C126.136 40.7681 124.682 39.4317 123.65 37.7389C122.619 36.046 122.108 34.1141 122.108 31.9476C122.108 29.7531 122.614 27.807 123.632 26.1142C124.649 24.4214 126.037 23.0944 127.8 22.1284C129.564 21.1671 131.552 20.6841 133.775 20.6841C135.913 20.6841 137.845 21.1389 139.566 22.044C141.287 22.9537 142.647 24.2526 143.65 25.9454C144.654 27.6382 145.155 29.664 145.155 32.0227C145.155 32.2665 145.141 32.5432 145.113 32.8574C145.085 33.1715 145.057 33.4623 145.033 33.7296H127.266V30.0297H141.699L139.261 31.127C139.261 29.9875 139.031 28.9981 138.572 28.1587C138.112 27.3194 137.474 26.6629 136.663 26.1846C135.852 25.7109 134.9 25.4718 133.817 25.4718C132.733 25.4718 131.777 25.7109 130.952 26.1846C130.126 26.6582 129.479 27.324 129.02 28.1775C128.56 29.0309 128.33 30.0391 128.33 31.2067V32.1821C128.33 33.3732 128.593 34.4236 129.123 35.3333C129.653 36.243 130.398 36.9323 131.36 37.4059C132.321 37.8795 133.451 38.1187 134.755 38.1187C135.917 38.1187 136.944 37.9452 137.826 37.5888C138.708 37.2371 139.514 36.7072 140.246 36.0038L143.622 39.6614C142.618 40.8009 141.357 41.6731 139.842 42.2827C138.309 42.9017 136.565 43.2065 134.586 43.2065Z" fill="white"/>
<path id="Vector_3" d="M162.674 20.6841C164.409 20.6841 165.962 21.0311 167.331 21.7204C168.7 22.4097 169.779 23.4695 170.562 24.8903C171.35 26.3112 171.739 28.1353 171.739 30.358V42.8783H165.399V31.338C165.399 29.5749 165.014 28.276 164.241 27.4366C163.467 26.5972 162.379 26.1752 160.968 26.1752C159.964 26.1752 159.064 26.3862 158.267 26.8035C157.465 27.2256 156.846 27.868 156.396 28.7355C155.95 29.603 155.725 30.7144 155.725 32.0696V42.8829H149.385V21.0123H155.444V27.0708L154.304 25.242C155.092 23.779 156.213 22.6536 157.68 21.8658C159.139 21.078 160.803 20.6841 162.674 20.6841Z" fill="white"/>
<path id="Vector_4" d="M183.002 42.8833L173.816 21.0127H180.362L188.006 39.8353H184.751L192.681 21.0127H198.777L189.548 42.8833H183.002Z" fill="white"/>
<path id="Vector_5" d="M211.621 43.2065C209.126 43.2065 206.936 42.7188 205.056 41.7435C203.171 40.7681 201.717 39.4317 200.685 37.7389C199.654 36.046 199.143 34.1141 199.143 31.9476C199.143 29.7531 199.649 27.807 200.667 26.1142C201.684 24.4214 203.072 23.0944 204.835 22.1284C206.598 21.1671 208.587 20.6841 210.809 20.6841C212.948 20.6841 214.88 21.1389 216.601 22.044C218.322 22.9537 219.681 24.2526 220.685 25.9454C221.688 27.6382 222.19 29.664 222.19 32.0227C222.19 32.2665 222.176 32.5432 222.148 32.8574C222.12 33.1715 222.092 33.4623 222.068 33.7296H204.301V30.0297H218.734L216.296 31.127C216.296 29.9875 216.066 28.9981 215.607 28.1587C215.147 27.3194 214.509 26.6629 213.698 26.1846C212.887 25.7109 211.935 25.4718 210.852 25.4718C209.768 25.4718 208.812 25.7109 207.986 26.1846C207.161 26.6582 206.514 27.324 206.055 28.1775C205.595 29.0309 205.365 30.0391 205.365 31.2067V32.1821C205.365 33.3732 205.628 34.4236 206.158 35.3333C206.688 36.243 207.433 36.9323 208.394 37.4059C209.356 37.8795 210.491 38.1187 211.789 38.1187C212.952 38.1187 213.979 37.9452 214.861 37.5888C215.743 37.2371 216.549 36.7072 217.281 36.0038L220.657 39.6614C219.653 40.8009 218.392 41.6731 216.877 42.2827C215.349 42.9017 213.6 43.2065 211.621 43.2065Z" fill="white"/>
<path id="Vector_6" d="M226.42 42.8834V21.0128H232.478V27.1932L231.625 25.4066C232.277 23.8638 233.318 22.6915 234.757 21.8897C236.192 21.0925 237.941 20.6892 240 20.6892V26.5414C239.728 26.5132 239.484 26.4945 239.268 26.4804C239.053 26.4664 238.823 26.4617 238.579 26.4617C236.844 26.4617 235.442 26.9587 234.373 27.9435C233.304 28.9329 232.769 30.471 232.769 32.5577V42.8834H226.42Z" fill="white"/>
</g>
<g id="Group_3">
<g id="Group_4">
<path id="Vector_7" d="M90.5959 60.6979V48.9561H95.726C97.0015 48.9561 98.1175 49.1999 99.0788 49.6923C100.04 50.1846 100.79 50.8646 101.325 51.7368C101.86 52.609 102.131 53.6359 102.131 54.8223C102.131 55.9946 101.864 57.0216 101.325 57.8984C100.79 58.7753 100.04 59.46 99.0788 59.9523C98.1175 60.4447 97.0015 60.6885 95.726 60.6885H90.5959V60.6979ZM92.7764 58.8504H95.6275C96.5091 58.8504 97.2734 58.6815 97.9159 58.3486C98.5583 58.011 99.0553 57.5421 99.407 56.9418C99.7587 56.3369 99.9369 55.6335 99.9369 54.827C99.9369 54.0111 99.7587 53.303 99.407 52.7074C99.0553 52.1072 98.5583 51.643 97.9159 51.3054C97.2734 50.9724 96.5091 50.8036 95.6275 50.8036H92.7764V58.8504Z" fill="white"/>
<path id="Vector_8" d="M114.98 60.8668C114.061 60.8668 113.217 60.7168 112.448 60.412C111.679 60.1119 111.004 59.6898 110.436 59.1459C109.864 58.6019 109.423 57.9689 109.109 57.2327C108.795 56.5012 108.64 55.6993 108.64 54.8271C108.64 53.9549 108.795 53.153 109.109 52.4215C109.423 51.69 109.864 51.0523 110.436 50.5083C111.008 49.9644 111.679 49.5423 112.448 49.2422C113.222 48.9421 114.056 48.7874 114.961 48.7874C115.876 48.7874 116.72 48.9374 117.484 49.2422C118.248 49.5423 118.919 49.9644 119.486 50.5083C120.058 51.0523 120.499 51.69 120.813 52.4215C121.128 53.153 121.282 53.9549 121.282 54.8271C121.282 55.6993 121.128 56.5058 120.813 57.2421C120.499 57.9783 120.058 58.616 119.486 59.1553C118.914 59.6898 118.248 60.1119 117.484 60.412C116.724 60.7121 115.885 60.8668 114.98 60.8668ZM114.966 58.9536C115.557 58.9536 116.105 58.8552 116.607 58.6535C117.109 58.4519 117.545 58.1658 117.915 57.7907C118.286 57.4156 118.572 56.9795 118.778 56.4824C118.985 55.9853 119.088 55.4367 119.088 54.8318C119.088 54.2269 118.985 53.6782 118.778 53.1812C118.572 52.6841 118.281 52.248 117.915 51.8729C117.545 51.4977 117.109 51.2117 116.607 51.0101C116.105 50.8084 115.557 50.7099 114.966 50.7099C114.375 50.7099 113.826 50.8084 113.329 51.0101C112.832 51.2117 112.396 51.4977 112.021 51.8729C111.646 52.248 111.355 52.6841 111.149 53.1812C110.943 53.6782 110.839 54.2316 110.839 54.8318C110.839 55.4226 110.943 55.9713 111.149 56.473C111.355 56.9748 111.646 57.4156 112.012 57.7907C112.382 58.1658 112.818 58.4519 113.32 58.6535C113.822 58.8505 114.37 58.9536 114.966 58.9536Z" fill="white"/>
<path id="Vector_9" d="M134.117 60.8665C133.198 60.8665 132.358 60.7164 131.594 60.421C130.83 60.1256 130.159 59.7036 129.592 59.1643C129.02 58.6203 128.579 57.9826 128.265 57.2464C127.95 56.5102 127.796 55.7036 127.796 54.8314C127.796 53.9592 127.95 53.1527 128.265 52.4165C128.579 51.6803 129.02 51.0378 129.596 50.4986C130.173 49.9546 130.844 49.5373 131.617 49.2419C132.391 48.9464 133.235 48.7964 134.15 48.7964C135.144 48.7964 136.044 48.9605 136.841 49.2841C137.638 49.6076 138.314 50.0859 138.862 50.7096L137.488 52.0507C137.029 51.5912 136.536 51.2535 136.002 51.0378C135.472 50.8221 134.886 50.7096 134.248 50.7096C133.634 50.7096 133.062 50.8081 132.536 51.0097C132.011 51.2113 131.556 51.4974 131.177 51.8632C130.797 52.2336 130.501 52.6697 130.295 53.1715C130.089 53.6732 129.986 54.2265 129.986 54.8314C129.986 55.4223 130.089 55.9709 130.295 56.4727C130.501 56.9744 130.797 57.4152 131.177 57.7904C131.556 58.1655 132.002 58.4515 132.518 58.6532C133.034 58.8548 133.601 58.9533 134.229 58.9533C134.811 58.9533 135.373 58.8595 135.913 58.6766C136.457 58.4937 136.972 58.1796 137.465 57.7482L138.708 59.3753C138.093 59.8677 137.38 60.2381 136.569 60.4914C135.763 60.7399 134.942 60.8665 134.117 60.8665ZM136.649 59.0846V54.6908H138.712V59.3706L136.649 59.0846Z" fill="white"/>
<path id="Vector_10" d="M156.269 60.6977V48.9558H161.099C162.14 48.9558 163.031 49.1246 163.771 49.4576C164.517 49.7952 165.089 50.2735 165.492 50.9018C165.896 51.5302 166.097 52.2711 166.097 53.1339C166.097 53.9967 165.896 54.7376 165.492 55.3566C165.089 55.9756 164.517 56.4539 163.771 56.7822C163.026 57.1104 162.135 57.2792 161.099 57.2792H157.474L158.444 56.2898V60.7024H156.269V60.6977ZM158.449 56.5196L157.478 55.4785H161C161.961 55.4785 162.684 55.2722 163.171 54.8596C163.659 54.4469 163.903 53.8701 163.903 53.1339C163.903 52.3836 163.659 51.8069 163.171 51.4083C162.684 51.005 161.961 50.8034 161 50.8034H157.478L158.449 49.7295V56.5196ZM163.95 60.6977L160.981 56.4398H163.312L166.299 60.6977H163.95Z" fill="white"/>
<path id="Vector_11" d="M175.738 58.8689H182.364V60.6977H173.558V48.9558H182.13V50.7846H175.738V58.8689ZM175.57 53.8373H181.408V55.6333H175.57V53.8373Z" fill="white"/>
<path id="Vector_12" d="M195.26 60.8665C194.364 60.8665 193.534 60.7164 192.77 60.421C192.006 60.1256 191.34 59.7036 190.772 59.1643C190.21 58.6203 189.769 57.9826 189.455 57.2464C189.14 56.5102 188.986 55.7036 188.986 54.8314C188.986 53.9592 189.14 53.1527 189.455 52.4165C189.769 51.6803 190.21 51.0378 190.777 50.4986C191.349 49.9546 192.01 49.5373 192.775 49.2419C193.534 48.9464 194.369 48.7964 195.274 48.7964C196.235 48.7964 197.112 48.9605 197.905 49.2934C198.697 49.6217 199.368 50.1141 199.916 50.7612L198.51 52.0882C198.083 51.6287 197.609 51.2864 197.084 51.0566C196.559 50.8268 195.987 50.7143 195.372 50.7143C194.758 50.7143 194.195 50.8128 193.689 51.0144C193.183 51.216 192.737 51.5021 192.367 51.8678C191.992 52.2383 191.701 52.6744 191.494 53.1761C191.288 53.6779 191.185 54.2312 191.185 54.8361C191.185 55.441 191.288 55.9944 191.494 56.4961C191.701 56.9979 191.992 57.434 192.367 57.8044C192.742 58.1749 193.183 58.4562 193.689 58.6579C194.195 58.8595 194.758 58.958 195.372 58.958C195.987 58.958 196.559 58.8454 197.084 58.6157C197.609 58.3859 198.083 58.0389 198.51 57.5653L199.916 58.9064C199.368 59.5441 198.697 60.0318 197.905 60.3647C197.117 60.6977 196.231 60.8665 195.26 60.8665Z" fill="white"/>
<path id="Vector_13" d="M212.301 60.8668C211.386 60.8668 210.537 60.7168 209.768 60.412C208.995 60.1119 208.324 59.6898 207.757 59.1459C207.185 58.6019 206.744 57.9689 206.434 57.2327C206.12 56.5012 205.965 55.6993 205.965 54.8271C205.965 53.9549 206.12 53.153 206.434 52.4215C206.749 51.69 207.189 51.0523 207.757 50.5083C208.329 49.9644 208.999 49.5423 209.768 49.2422C210.537 48.9421 211.377 48.7874 212.282 48.7874C213.196 48.7874 214.04 48.9374 214.805 49.2422C215.569 49.5423 216.24 49.9644 216.807 50.5083C217.379 51.0523 217.82 51.69 218.129 52.4215C218.444 53.153 218.598 53.9549 218.598 54.8271C218.598 55.6993 218.444 56.5058 218.129 57.2421C217.815 57.9783 217.374 58.616 216.807 59.1553C216.235 59.6898 215.569 60.1119 214.805 60.412C214.04 60.7121 213.206 60.8668 212.301 60.8668ZM212.282 58.9536C212.873 58.9536 213.421 58.8552 213.928 58.6535C214.43 58.4519 214.866 58.1658 215.236 57.7907C215.607 57.4156 215.893 56.9795 216.099 56.4824C216.305 55.9853 216.408 55.4367 216.408 54.8318C216.408 54.2269 216.305 53.6782 216.099 53.1812C215.893 52.6841 215.602 52.248 215.236 51.8729C214.866 51.4977 214.43 51.2117 213.928 51.0101C213.426 50.8084 212.877 50.7099 212.282 50.7099C211.691 50.7099 211.142 50.8084 210.645 51.0101C210.148 51.2117 209.712 51.4977 209.337 51.8729C208.962 52.248 208.671 52.6841 208.465 53.1812C208.258 53.6782 208.155 54.2316 208.155 54.8318C208.155 55.4226 208.258 55.9713 208.465 56.473C208.671 56.9748 208.957 57.4156 209.328 57.7907C209.698 58.1658 210.134 58.4519 210.636 58.6535C211.142 58.8505 211.691 58.9536 212.282 58.9536Z" fill="white"/>
<path id="Vector_14" d="M225.951 60.6977V48.9558H227.747L235.109 57.9967H234.218V48.9558H236.38V60.693H234.584L227.222 51.6521H228.113V60.693H225.951V60.6977Z" fill="white"/>
</g>
</g>
</g>
<path id="Vector_15" d="M70.1323 17.6691C66.6341 12.1029 61.7808 7.76538 55.5722 4.66111C49.359 1.55214 42.1891 0 34.0486 0H0V73.0209C2.25553 70.9389 6.55087 64.9741 7.27301 62.7374C10.5273 65.1054 12.7969 66.1886 16.7687 65.6541C21.9972 64.9554 26.3911 58.6718 26.9913 53.5183C27.9807 44.9745 23.1602 36.9465 14.9165 32.3698C14.3069 32.0322 13.5378 32.2901 13.2283 32.9091C12.9282 33.5093 13.1721 34.2221 13.7582 34.5456C21.1813 38.6675 24.9468 45.3121 24.1308 52.9368C23.887 55.2252 21.4908 62.0527 16.3514 62.667C15.6292 62.7514 14.8508 62.7843 14.0349 62.7186C10.4992 62.4466 8.31402 60.1114 6.63997 56.0317C1.87101 44.4071 3.87331 31.5539 10.8697 26.452C20.2575 19.6057 34.4706 20.3513 45.4903 28.8764C47.2207 27.6056 58.6671 22.3067 61.2509 21.7346C62.3997 23.9573 80.1813 47.3754 44.6603 56.5054C42.9112 56.7398 38.1517 58.1982 35.657 60.2568C32.9888 62.4607 28.3558 68.2238 28.5856 74.9482H34.0626C42.1985 74.9482 49.373 73.396 55.5863 70.2917C61.7948 67.1875 66.6482 62.8312 70.1464 57.2275C73.6445 51.6239 75.3936 45.0402 75.3936 37.4717C75.3796 29.8376 73.6305 23.2352 70.1323 17.6691Z" fill="white"/>
</g>
</svg>
