<svg width="25" height="25" viewBox="0 0 25 25" fill="none" xmlns="http://www.w3.org/2000/svg">
<path d="M18.7501 23.9583H4.16675C2.44383 23.9583 1.04175 22.5563 1.04175 20.8333V6.25C1.04175 4.52708 2.44383 3.125 4.16675 3.125H12.5001C13.0751 3.125 13.5417 3.59063 13.5417 4.16667C13.5417 4.74271 13.0751 5.20833 12.5001 5.20833H4.16675C3.59279 5.20833 3.12508 5.675 3.12508 6.25V20.8333C3.12508 21.4083 3.59279 21.875 4.16675 21.875H18.7501C19.324 21.875 19.7917 21.4083 19.7917 20.8333V12.5C19.7917 11.924 20.2584 11.4583 20.8334 11.4583C21.4084 11.4583 21.8751 11.924 21.8751 12.5V20.8333C21.8751 22.5563 20.473 23.9583 18.7501 23.9583Z" fill="white"/>
<path d="M22.9168 1.04167H16.6668C16.2459 1.04167 15.8657 1.2948 15.7043 1.68438C15.5428 2.07396 15.6324 2.52188 15.9303 2.8198L18.3188 5.20834L10.722 12.8052C10.3147 13.2125 10.3147 13.8708 10.722 14.2781C10.9251 14.4813 11.1918 14.5833 11.4584 14.5833C11.7251 14.5833 11.9918 14.4813 12.1949 14.2781L19.7918 6.68126L22.1803 9.0698C22.3793 9.26876 22.6459 9.37501 22.9168 9.37501C23.0511 9.37501 23.1866 9.35001 23.3157 9.29584C23.7043 9.13542 23.9584 8.75417 23.9584 8.33334V2.08334C23.9584 1.5073 23.4918 1.04167 22.9168 1.04167Z" fill="white"/>
</svg>
