<svg width="91" height="40" viewBox="0 0 91 40" fill="none" xmlns="http://www.w3.org/2000/svg">
<path id="Vector" d="M21.5444 4.81299C22.5444 3.513 22.7444 1.91299 21.3444 0.712993C20.1444 -0.287007 18.4444 -0.187007 17.2444 0.712993C14.9444 2.51299 12.6444 4.31299 10.6444 6.31299C7.34444 9.713 4.34444 13.213 1.24444 16.713C0.0444444 17.413 -0.355556 19.013 0.344444 20.113L0.744444 20.713C5.14444 27.913 11.8444 33.013 17.4444 39.213C17.7444 39.513 18.6444 39.413 19.0444 39.213C19.9444 38.813 20.2444 37.913 20.1444 36.913C19.8444 33.813 18.4444 31.213 16.5444 28.913C14.3444 26.413 12.2444 23.813 10.0444 21.313C10.1444 21.313 10.3444 21.313 10.4444 21.413C15.1444 21.713 19.8444 22.113 24.5444 22.113C32.0444 22.013 39.6444 21.613 47.1444 21.413C60.6444 23.613 74.4445 22.413 88.1444 22.813C88.7444 22.813 89.7444 22.113 90.0444 21.713C90.6444 20.713 89.8444 19.913 88.7444 19.313C84.9444 17.313 80.2444 16.413 75.5444 16.213C64.2444 15.613 52.8444 14.813 41.4444 15.413C40.0444 15.313 38.6444 15.213 37.2444 15.213C28.6444 14.913 20.0444 14.813 11.4444 15.513C15.0444 12.213 18.5444 8.81299 21.5444 4.81299Z" fill="white"/>
</svg>
